<svg width="138" height="25" viewBox="0 0 138 25" fill="none" xmlns="http://www.w3.org/2000/svg">
<g clip-path="url(#clip0_4_1259)">
<path d="M137.338 0H121.798L118.743 25H134.283L134.9 20.0059H125.441L126.058 15.0118H129.965L133.02 10.0176H126.675L127.291 5.0235H136.722L137.338 0ZM117.215 25L120.3 0H113.837L107.168 11.9859L103.437 0H96.9742L93.9189 25H100.029L101.704 11.2515L104.788 19.9765H107.55L112.808 11.2515L111.134 25H117.215ZM94.859 4.99412L95.4759 0H79.9354L76.8802 25H92.4207L93.0376 20.0059H83.6075L84.2245 15.0118H88.1316L91.1869 10.0176H84.8414L85.4583 5.0235L94.859 4.99412ZM77.9671 3.26087C78.2021 1.46886 76.7626 0 74.765 0H60.3408L57.2856 25H63.396L64.2479 18.0082H67.8907L69.0658 25H75.3819L74.1774 17.6851C75.4994 17.1857 76.4395 16.04 76.5864 14.8061L77.9671 3.26087ZM71.651 4.99412L70.6816 12.9847H64.8649L65.8343 4.99412H71.651ZM58.3725 3.26087C58.5782 1.46886 57.1387 0 55.1704 0H41.0106L40.3937 4.99412H46.5041H46.9448H52.0564L50.9988 13.4841H45.4465L45.8872 9.98825H39.7767L37.926 24.9706H44.0364L44.8296 18.4783H52.879C54.8766 18.4783 56.6686 17.0094 56.8743 15.2174L58.3725 3.26087ZM36.8978 21.7391L39.5711 0H33.4606L30.993 19.9765H25.7051L28.1727 0H22.0623L19.389 21.7391C19.1833 23.5311 20.6228 25 22.5911 25H32.8731C34.8707 25 36.6628 23.5311 36.8978 21.7391ZM19.4477 6.75676L20.2703 0H3.349L2.7027 5.2879L11.4277 19.9765H6.72738L6.9624 17.9788H0.851939L0 25H17.4794L18.1257 19.7121L9.40071 4.99412H13.5723L13.3373 6.75676H19.4477Z" fill="white"/>
</g>
<defs>
<clipPath id="clip0_4_1259">
<rect width="137.338" height="25" fill="white"/>
</clipPath>
</defs>
</svg>
