<svg width="118" height="22" viewBox="0 0 118 22" fill="none" xmlns="http://www.w3.org/2000/svg">
<g clip-path="url(#clip0_4_2886)">
<path d="M117.719 0H104.398L101.779 21.4286H115.1L115.629 17.1479H107.521L108.049 12.8672H111.398L114.017 8.58654H108.578L109.107 4.30586H117.19L117.719 0ZM100.47 21.4286L103.114 0H97.5743L91.8583 10.2736L88.6604 0H83.1207L80.5019 21.4286H85.7395L87.1748 9.64412L89.8187 17.1227H92.1857L96.693 9.64412L95.2577 21.4286H100.47ZM81.3077 4.28068L81.8365 0H68.516L65.8973 21.4286H79.2177L79.7465 17.1479H71.6636L72.1924 12.8672H75.5414L78.1602 8.58654H72.7212L73.25 4.30586L81.3077 4.28068ZM66.8289 2.79503C67.0304 1.25902 65.7965 0 64.0843 0H51.7207L49.1019 21.4286H54.3394L55.0697 15.4356H58.1921L59.1993 21.4286H64.6131L63.5807 15.1586C64.7138 14.7306 65.5196 13.7485 65.6455 12.691L66.8289 2.79503ZM61.4151 4.28068L60.5842 11.1298H55.5985L56.4294 4.28068H61.4151ZM50.0336 2.79503C50.2098 1.25902 48.976 0 47.2889 0H35.1519L34.6231 4.28068H39.8607H40.2384H44.6198L43.7133 11.5578H38.9542L39.3319 8.56136H34.0943L32.508 21.4034H37.7455L38.4254 15.8385H45.3248C47.0371 15.8385 48.5731 14.5795 48.7494 13.0435L50.0336 2.79503ZM31.6267 18.6335L33.9181 0H28.6805L26.5654 17.1227H22.0329L24.1481 0H18.9105L16.6191 18.6335C16.4428 20.1695 17.6767 21.4286 19.3638 21.4286H28.1769C29.8892 21.4286 31.4252 20.1695 31.6267 18.6335ZM16.6695 5.79151L17.3745 0H2.87057L2.3166 4.53248L9.7952 17.1227H5.76633L5.96777 15.4104H0.730233L0 21.4286H14.9824L15.5363 16.8961L8.05775 4.28068H11.6334L11.4319 5.79151H16.6695Z" fill="white"/>
</g>
<defs>
<clipPath id="clip0_4_2886">
<rect width="117.719" height="21.4286" fill="white"/>
</clipPath>
</defs>
</svg>
