<svg width="220" height="40" viewBox="0 0 220 40" fill="none" xmlns="http://www.w3.org/2000/svg">
<g clip-path="url(#clip0_38_807)">
<path d="M220 0H195.106L190.212 40H215.106L216.094 32.0094H200.941L201.929 24.0188H208.188L213.082 16.0282H202.918L203.906 8.0376H219.012L220 0ZM187.765 40L192.706 0H182.353L171.671 19.1774L165.694 0H155.341L150.447 40H160.235L162.918 18.0023L167.859 31.9624H172.282L180.706 18.0023L178.024 40H187.765ZM151.953 7.9906L152.941 0H128.047L123.153 40H148.047L149.035 32.0094H133.929L134.918 24.0188H141.176L146.071 16.0282H135.906L136.894 8.0376L151.953 7.9906ZM124.894 5.21739C125.271 2.35018 122.965 0 119.765 0H96.6588L91.7647 40H101.553L102.918 28.8132H108.753L110.635 40H120.753L118.824 28.2961C120.941 27.4971 122.447 25.6639 122.682 23.6898L124.894 5.21739ZM114.776 7.9906L113.224 20.7756H103.906L105.459 7.9906H114.776ZM93.5059 5.21739C93.8353 2.35018 91.5294 0 88.3765 0H65.6941L64.7059 7.9906H74.4941H75.2H83.3882L81.6941 21.5746H72.8L73.5059 15.9812H63.7176L60.7529 39.953H70.5412L71.8118 29.5652H84.7059C87.9059 29.5652 90.7765 27.215 91.1059 24.3478L93.5059 5.21739ZM59.1059 34.7826L63.3882 0H53.6L49.6471 31.9624H41.1765L45.1294 0H35.3412L31.0588 34.7826C30.7294 37.6498 33.0353 40 36.1882 40H52.6588C55.8588 40 58.7294 37.6498 59.1059 34.7826ZM31.1529 10.8108L32.4706 0H5.36471L4.32941 8.46063L18.3059 31.9624H10.7765L11.1529 28.7662H1.36471L0 40H28L29.0353 31.5394L15.0588 7.9906H21.7412L21.3647 10.8108H31.1529Z" fill="#111111"/>
</g>
<defs>
<clipPath id="clip0_38_807">
<rect width="220" height="40" fill="white"/>
</clipPath>
</defs>
</svg>
